<svg width="32" height="32" viewBox="0 0 32 32" fill="none" xmlns="http://www.w3.org/2000/svg">
  <path d="M29.8841 6.45654L16.8505 28.5517C16.634 28.934 16.0773 28.8878 15.93 28.4785L10.3757 12.9467L29.1357 5.93338C29.5823 5.7802 29.9553 6.17675 29.8841 6.45654Z" fill="#3B82F6"/>
  <path d="M10.3758 12.9467L15.93 28.4785C16.0773 28.8878 15.7156 29.3048 15.2922 29.1892L2.98206 25.9604C2.72921 25.8917 2.59043 25.6359 2.63193 25.3839L10.3758 12.9467Z" fill="#2563EB"/>
  <path d="M29.1357 5.93338L10.3757 12.9467L2.63193 25.3839C2.59043 25.6359 2.7292 25.8917 2.98206 25.9604L2.86585 25.9297C2.4808 25.8222 2.30255 25.3908 2.46755 25.0522L8.94933 12.6022C8.96686 12.566 8.98685 12.5317 9.00911 12.4995L16.0962 3.09214C16.4098 2.67067 16.9987 2.93392 16.7753 3.40578L13.0939 11.7621C12.9723 12.0416 13.146 12.3619 13.4414 12.4024L29.1357 5.93338Z" fill="#1D4ED8"/>
</svg>